<svg width="25" height="25" viewBox="0 0 25 25" fill="none" xmlns="http://www.w3.org/2000/svg">
<path d="M6.78398 17.9147C6.83086 17.9147 6.87773 17.91 6.92461 17.903L10.8668 17.2116C10.9137 17.2022 10.9582 17.1811 10.991 17.146L20.9262 7.2108C20.9479 7.18911 20.9651 7.16336 20.9769 7.13501C20.9887 7.10665 20.9947 7.07626 20.9947 7.04556C20.9947 7.01487 20.9887 6.98447 20.9769 6.95612C20.9651 6.92777 20.9479 6.90201 20.9262 6.88033L17.0309 2.98267C16.9863 2.93814 16.9277 2.9147 16.8645 2.9147C16.8012 2.9147 16.7426 2.93814 16.698 2.98267L6.76289 12.9178C6.72773 12.953 6.70664 12.9952 6.69727 13.042L6.00586 16.9842C5.98306 17.1098 5.99121 17.239 6.02959 17.3607C6.06798 17.4824 6.13546 17.5929 6.22617 17.6827C6.38086 17.8327 6.57539 17.9147 6.78398 17.9147ZM8.36367 13.8272L16.8645 5.32877L18.5824 7.04673L10.0816 15.5452L7.99805 15.9131L8.36367 13.8272ZM21.3691 19.8835H4.11914C3.7043 19.8835 3.36914 20.2186 3.36914 20.6335V21.4772C3.36914 21.5803 3.45352 21.6647 3.55664 21.6647H21.9316C22.0348 21.6647 22.1191 21.5803 22.1191 21.4772V20.6335C22.1191 20.2186 21.784 19.8835 21.3691 19.8835Z" fill="#A3A3A4"/>
</svg>
