<svg width="19" height="23" viewBox="0 0 19 23" fill="none" xmlns="http://www.w3.org/2000/svg">
<path d="M1.74414 3.8017V19.8017C1.74414 20.3321 1.95485 20.8408 2.32993 21.2159C2.705 21.591 3.21371 21.8017 3.74414 21.8017H15.7441C16.2746 21.8017 16.7833 21.591 17.1584 21.2159C17.5334 20.8408 17.7441 20.3321 17.7441 19.8017V8.1437C17.7441 7.87726 17.6908 7.61351 17.5875 7.36794C17.4841 7.12237 17.3327 6.89994 17.1421 6.7137L12.7021 2.3717C12.3285 2.00635 11.8267 1.80176 11.3041 1.8017H3.74414C3.21371 1.8017 2.705 2.01241 2.32993 2.38748C1.95485 2.76256 1.74414 3.27126 1.74414 3.8017V3.8017Z" stroke="#424243" stroke-width="2" stroke-linecap="round" stroke-linejoin="round"/>
</svg>
