<svg width="22" height="21" viewBox="0 0 22 21" fill="none" xmlns="http://www.w3.org/2000/svg">
<path d="M2.85714 3.07925C3.03414 2.44931 3.41223 1.89452 3.9338 1.49942C4.45537 1.10431 5.09181 0.890564 5.74614 0.890747H15.7481C16.4025 0.890564 17.0389 1.10431 17.5605 1.49942C18.0821 1.89452 18.4601 2.44931 18.6371 3.07925L21.1271 11.9262C21.2576 12.3904 21.2788 12.8785 21.189 13.3522C21.0991 13.8259 20.9007 14.2723 20.6093 14.6564C20.3179 15.0405 19.9414 15.3519 19.5095 15.5661C19.0775 15.7802 18.6018 15.8914 18.1196 15.8907H9.24714V14.3907H18.1211C18.3713 14.3908 18.6181 14.3329 18.8421 14.2216C19.0661 14.1104 19.2614 13.9487 19.4125 13.7494C19.5636 13.55 19.6665 13.3184 19.7131 13.0726C19.7597 12.8268 19.7488 12.5736 19.6811 12.3327L17.1911 3.48425C17.1026 3.16991 16.914 2.89305 16.6538 2.69569C16.3937 2.49833 16.0762 2.39126 15.7496 2.39075H5.74614C5.41888 2.3907 5.10058 2.49768 4.83979 2.69538C4.57899 2.89308 4.39 3.17064 4.30164 3.48575L3.76614 5.39075H2.49414C2.39514 5.39075 2.29914 5.39525 2.20314 5.40125L2.85564 3.07925H2.85714ZM9.17214 18.8907H15.9986C16.1976 18.8907 16.3883 18.8117 16.529 18.6711C16.6696 18.5304 16.7486 18.3397 16.7486 18.1407C16.7486 17.9418 16.6696 17.7511 16.529 17.6104C16.3883 17.4698 16.1976 17.3907 15.9986 17.3907H9.24864V18.1407C9.24864 18.3972 9.22164 18.6477 9.17364 18.8907H9.17214ZM3.99564 12.1407C4.29401 12.1407 4.58016 12.0222 4.79114 11.8112C5.00211 11.6003 5.12064 11.3141 5.12064 11.0157C5.12064 10.7174 5.00211 10.4312 4.79114 10.2203C4.58016 10.0093 4.29401 9.89075 3.99564 9.89075C3.69727 9.89075 3.41112 10.0093 3.20015 10.2203C2.98917 10.4312 2.87064 10.7174 2.87064 11.0157C2.87064 11.3141 2.98917 11.6003 3.20015 11.8112C3.41112 12.0222 3.69727 12.1407 3.99564 12.1407ZM0.244141 9.14075C0.244141 8.54401 0.481194 7.97171 0.90315 7.54976C1.32511 7.1278 1.8974 6.89075 2.49414 6.89075H5.49564C6.09238 6.89075 6.66467 7.1278 7.08663 7.54976C7.50859 7.97171 7.74564 8.54401 7.74564 9.14075V18.1407C7.74564 18.7375 7.50859 19.3098 7.08663 19.7317C6.66467 20.1537 6.09238 20.3907 5.49564 20.3907H2.49564C2.20004 20.3909 1.9073 20.3329 1.63414 20.2199C1.36099 20.1069 1.11277 19.9412 0.903681 19.7323C0.69459 19.5233 0.528722 19.2752 0.415555 19.0021C0.302388 18.729 0.244141 18.4363 0.244141 18.1407V9.14075ZM2.49414 8.39075C2.29523 8.39075 2.10446 8.46976 1.96381 8.61042C1.82316 8.75107 1.74414 8.94183 1.74414 9.14075V18.1407C1.74414 18.3397 1.82316 18.5304 1.96381 18.6711C2.10446 18.8117 2.29523 18.8907 2.49414 18.8907H5.49564C5.69455 18.8907 5.88532 18.8117 6.02597 18.6711C6.16662 18.5304 6.24564 18.3397 6.24564 18.1407V9.14075C6.24564 8.94183 6.16662 8.75107 6.02597 8.61042C5.88532 8.46976 5.69455 8.39075 5.49564 8.39075H2.49564H2.49414Z" fill="black"/>
</svg>
