<svg width="25" height="20" viewBox="0 0 25 20" fill="none" xmlns="http://www.w3.org/2000/svg">
<path d="M1.30388 4.6067L1.24388 3.3017C1.24388 2.50605 1.55995 1.74299 2.12256 1.18038C2.68517 0.617767 3.44823 0.301697 4.24388 0.301697H9.75188C10.5475 0.301867 11.3104 0.618049 11.8729 1.1807L13.1149 2.4227C13.6774 2.98534 14.4403 3.30153 15.2359 3.3017H21.2089C21.6258 3.30165 22.0381 3.3885 22.4195 3.55668C22.801 3.72487 23.1432 3.97071 23.4243 4.27853C23.7055 4.58634 23.9194 4.94937 24.0524 5.34446C24.1854 5.73955 24.2346 6.15803 24.1969 6.5732L23.2414 17.0732C23.1736 17.8186 22.8297 18.5117 22.2772 19.0165C21.7246 19.5214 21.0033 19.8014 20.2549 19.8017H4.73288C3.98443 19.8014 3.26313 19.5214 2.71057 19.0165C2.15801 18.5117 1.81411 17.8186 1.74638 17.0732L0.790877 6.5732C0.726956 5.87837 0.908468 5.18311 1.30388 4.6082V4.6067ZM3.77888 4.8017C3.57051 4.80168 3.36442 4.84509 3.17375 4.92913C2.98308 5.01318 2.81202 5.13604 2.67146 5.28986C2.5309 5.44368 2.42393 5.6251 2.35737 5.82256C2.29081 6.02001 2.26612 6.22917 2.28488 6.4367L3.24038 16.9367C3.27406 17.3094 3.44582 17.656 3.72196 17.9086C3.9981 18.1611 4.35867 18.3013 4.73288 18.3017H20.2549C20.6291 18.3013 20.9897 18.1611 21.2658 17.9086C21.5419 17.656 21.7137 17.3094 21.7474 16.9367L22.7029 6.4367C22.7216 6.22917 22.6969 6.02001 22.6304 5.82256C22.5638 5.6251 22.4569 5.44368 22.3163 5.28986C22.1757 5.13604 22.0047 5.01318 21.814 4.92913C21.6233 4.84509 21.4172 4.80168 21.2089 4.8017H3.77888ZM10.8139 2.2412C10.6744 2.10172 10.5089 1.99111 10.3266 1.91569C10.1444 1.84028 9.9491 1.80154 9.75188 1.8017H4.24388C3.85094 1.80163 3.47367 1.95574 3.19317 2.23091C2.91267 2.50608 2.75134 2.88033 2.74388 3.2732L2.75288 3.4817C3.07388 3.3647 3.41888 3.3017 3.77888 3.3017H11.8729L10.8124 2.2412H10.8139Z" fill="#424243"/>
</svg>
