<svg width="22" height="21" viewBox="0 0 22 21" fill="none" xmlns="http://www.w3.org/2000/svg">
<path d="M2.67229 11.516L12.1009 11.5168C12.5332 11.5169 12.9496 11.6804 13.2665 11.9744C13.5835 12.2685 13.7776 12.6714 13.81 13.1026L13.8152 13.2311V15.3731C13.8143 18.9731 10.1406 20.0874 7.38658 20.0874C4.68744 20.0874 1.10458 19.0177 0.962294 15.5857L0.958008 15.3731V13.2303C0.958008 12.3268 1.65744 11.5863 2.54372 11.5211L2.67229 11.516ZM19.8152 11.516L19.9437 11.5211C20.3517 11.5519 20.7352 11.7276 21.025 12.0163C21.3148 12.305 21.4919 12.6879 21.5243 13.0957L21.5294 13.2303V14.9446C21.5286 18.1666 18.5894 19.2303 16.3866 19.2303C15.4797 19.2303 14.4503 19.046 13.5503 18.6088C13.8229 18.2848 14.0534 17.9248 14.2334 17.522C15.0546 17.882 15.94 17.9377 16.3146 17.9437L16.5614 17.9411C17.4494 17.9111 20.1014 17.612 20.2386 15.1443L20.2437 14.9446V13.2303C20.2436 13.13 20.2084 13.0329 20.1442 12.9559C20.08 12.8789 19.9909 12.8268 19.8923 12.8086L19.8152 12.8017L14.6286 12.8026C14.5577 12.3829 14.3823 11.9879 14.1186 11.654L14.0037 11.516H19.8152ZM2.67229 12.8017L2.58658 12.8103C2.50431 12.8274 2.42872 12.8679 2.36886 12.9268C2.30988 12.9863 2.26939 13.0617 2.25229 13.1437L2.24372 13.2303V15.3731C2.24372 16.5208 2.74687 17.3694 3.78229 17.966C4.63601 18.4597 5.83087 18.7571 7.09429 18.7974L7.38658 18.8017L7.75944 18.7931C9.06229 18.7348 12.37 18.3157 12.5234 15.572L12.5294 15.3723V13.2311C12.5291 13.1309 12.4939 13.0339 12.4297 12.9569C12.3655 12.88 12.2765 12.8278 12.178 12.8094L12.1009 12.8026L2.67229 12.8017ZM7.38658 0.373125C8.63689 0.373125 9.83598 0.869807 10.7201 1.75391C11.6042 2.63801 12.1009 3.8371 12.1009 5.08741C12.1009 6.33772 11.6042 7.53681 10.7201 8.42091C9.83598 9.30501 8.63689 9.8017 7.38658 9.8017C6.13627 9.8017 4.93718 9.30501 4.05308 8.42091C3.16898 7.53681 2.67229 6.33772 2.67229 5.08741C2.67229 3.8371 3.16898 2.63801 4.05308 1.75391C4.93718 0.869807 6.13627 0.373125 7.38658 0.373125ZM16.8152 2.08741C17.3217 2.08741 17.8232 2.18718 18.2912 2.38102C18.7592 2.57486 19.1844 2.85897 19.5426 3.21714C19.9007 3.57531 20.1848 4.00052 20.3787 4.46849C20.5725 4.93646 20.6723 5.43803 20.6723 5.94455C20.6723 6.45108 20.5725 6.95265 20.3787 7.42062C20.1848 7.88859 19.9007 8.3138 19.5426 8.67196C19.1844 9.03013 18.7592 9.31425 18.2912 9.50809C17.8232 9.70193 17.3217 9.8017 16.8152 9.8017C15.7922 9.8017 14.8111 9.39532 14.0877 8.67196C13.3644 7.94861 12.958 6.96753 12.958 5.94455C12.958 4.92158 13.3644 3.9405 14.0877 3.21714C14.8111 2.49379 15.7922 2.08741 16.8152 2.08741ZM7.38658 1.65884C5.49572 1.65884 3.95801 3.19655 3.95801 5.08741C3.95801 6.97827 5.49572 8.51598 7.38658 8.51598C9.27744 8.51598 10.8152 6.97827 10.8152 5.08741C10.8152 3.19655 9.27744 1.65884 7.38658 1.65884ZM16.8152 3.37312C15.3974 3.37312 14.2437 4.52684 14.2437 5.94455C14.2437 7.36227 15.3974 8.51598 16.8152 8.51598C18.2329 8.51598 19.3866 7.36227 19.3866 5.94455C19.3866 4.52684 18.2329 3.37312 16.8152 3.37312Z" fill="#424243"/>
</svg>
