<svg width="12" height="20" viewBox="0 0 12 20" fill="none" xmlns="http://www.w3.org/2000/svg">
<path d="M8.97806 14.5324L9.53206 13.4284C10.3401 11.8184 10.4291 10.2004 9.78506 8.87644C9.66204 8.63058 9.51356 8.39831 9.34206 8.18344C10.0551 7.87203 10.6619 7.35969 11.0885 6.709C11.5151 6.05832 11.7429 5.29748 11.7441 4.51944C11.7441 2.31344 9.95006 0.51944 7.74406 0.51944C5.53806 0.51944 3.74407 2.31344 3.74407 4.51944C3.74407 5.30244 3.97807 6.02744 4.36806 6.64544C2.67207 6.97544 1.56207 7.89344 1.42107 8.02044C1.1308 8.27548 0.920759 8.60924 0.816402 8.98127C0.712045 9.3533 0.717856 9.74762 0.83313 10.1164C0.948404 10.4852 1.16819 10.8126 1.46584 11.059C1.76349 11.3054 2.12623 11.4601 2.51007 11.5044L1.95607 12.6084C1.14807 14.2184 1.05907 15.8364 1.70207 17.1604C2.26707 18.3244 3.32307 19.1154 4.67407 19.3894C5.08707 19.4734 5.51007 19.5164 5.92806 19.5164C8.29606 19.5164 9.89307 18.1694 10.0681 18.0154C10.3585 17.7605 10.5686 17.4267 10.673 17.0546C10.7774 16.6825 10.7715 16.2882 10.6561 15.9194C10.5407 15.5506 10.3207 15.2232 10.0228 14.977C9.72493 14.7308 9.362 14.5764 8.97806 14.5324ZM7.74406 2.51944C8.00677 2.51951 8.2669 2.57132 8.50958 2.67191C8.75227 2.77251 8.97277 2.91992 9.15849 3.10573C9.3442 3.29154 9.4915 3.51211 9.59198 3.75484C9.69245 3.99758 9.74413 4.25773 9.74406 4.52044C9.744 4.78315 9.69219 5.04327 9.59159 5.28596C9.491 5.52865 9.34359 5.74914 9.15778 5.93486C8.97197 6.12058 8.7514 6.26788 8.50866 6.36835C8.26592 6.46883 8.00577 6.52051 7.74306 6.52044C7.2125 6.52031 6.70372 6.30941 6.32864 5.93415C5.95357 5.55889 5.74293 5.05001 5.74306 4.51944C5.7432 3.98887 5.95409 3.48009 6.32935 3.10502C6.70461 2.72995 7.2135 2.51931 7.74406 2.51944ZM5.92806 17.5184C5.65706 17.5184 5.36906 17.4934 5.07406 17.4314C3.43207 17.0974 2.74607 15.4984 3.74607 13.5044L4.74606 11.5094C5.24606 10.5134 5.21607 9.87944 4.63807 9.47444C4.45707 9.34944 4.20707 9.30544 3.94907 9.30544C3.37207 9.30544 2.74806 9.51944 2.74806 9.51944C2.74806 9.51944 3.88107 8.51844 5.56006 8.51844C5.83107 8.51844 6.12006 8.54344 6.41606 8.60544C8.05606 8.93944 8.74406 10.5384 7.74406 12.5324L6.74406 14.5254C6.24406 15.5234 6.27206 16.1574 6.85006 16.5604C7.03106 16.6864 7.28307 16.7294 7.54207 16.7294C8.11907 16.7294 8.74206 16.5174 8.74206 16.5174C8.74206 16.5174 7.60907 17.5184 5.92806 17.5184Z" fill="#424243"/>
</svg>
