<svg width="24" height="21" viewBox="0 0 24 21" fill="none" xmlns="http://www.w3.org/2000/svg">
<path d="M0.553877 5.23832L0.493877 3.93332C0.493877 3.13767 0.809947 2.37461 1.37256 1.812C1.93517 1.24939 2.69823 0.933319 3.49388 0.933319H9.00188C9.79746 0.933489 10.5604 1.24967 11.1229 1.81232L12.3649 3.05432C12.9274 3.61697 13.6903 3.93315 14.4859 3.93332H20.4589C20.8758 3.93328 21.2881 4.02012 21.6695 4.18831C22.051 4.35649 22.3932 4.60234 22.6743 4.91015C22.9555 5.21796 23.1694 5.58099 23.3024 5.97608C23.4354 6.37117 23.4846 6.78965 23.4469 7.20482L22.4914 17.7048C22.4236 18.4502 22.0797 19.1433 21.5272 19.6481C20.9746 20.153 20.2533 20.433 19.5049 20.4333H3.98288C3.23443 20.433 2.51313 20.153 1.96057 19.6481C1.40801 19.1433 1.06411 18.4502 0.996377 17.7048L0.0408765 7.20482C-0.0230442 6.50999 0.158468 5.81473 0.553877 5.23982V5.23832ZM3.02888 5.43332C2.82051 5.43331 2.61442 5.47671 2.42375 5.56076C2.23308 5.64481 2.06202 5.76766 1.92146 5.92148C1.7809 6.07531 1.67393 6.25673 1.60737 6.45418C1.54081 6.65164 1.51612 6.86079 1.53488 7.06832L2.49038 17.5683C2.52406 17.941 2.69582 18.2877 2.97196 18.5402C3.2481 18.7928 3.60867 18.933 3.98288 18.9333H19.5049C19.8791 18.933 20.2397 18.7928 20.5158 18.5402C20.7919 18.2877 20.9637 17.941 20.9974 17.5683L21.9529 7.06832C21.9716 6.86079 21.9469 6.65164 21.8804 6.45418C21.8138 6.25673 21.7069 6.07531 21.5663 5.92148C21.4257 5.76766 21.2547 5.64481 21.064 5.56076C20.8733 5.47671 20.6672 5.43331 20.4589 5.43332H3.02888ZM10.0639 2.87282C9.92444 2.73334 9.75887 2.62273 9.57664 2.54732C9.39441 2.4719 9.1991 2.43316 9.00188 2.43332H3.49388C3.10094 2.43325 2.72367 2.58737 2.44317 2.86254C2.16267 3.13771 2.00134 3.51195 1.99388 3.90482L2.00288 4.11332C2.32388 3.99632 2.66888 3.93332 3.02888 3.93332H11.1229L10.0624 2.87282H10.0639Z" fill="black"/>
</svg>
